<svg id="Layer_1" data-name="Layer 1" xmlns="http://www.w3.org/2000/svg" viewBox="0 0 11.39 24.86"><defs><style>.cls-1{fill:#ff81a6;}.cls-2{fill:none;stroke:#f4ede7;stroke-miterlimit:10;stroke-width:0.25px;}</style></defs><title>ic4</title><path class="cls-1" d="M1331.23,691.88v2.5h3.7l-.6,3.85h-3.1v9.21a17.31,17.31,0,0,1-4.16,0v-9.2h-3.38v-3.85h3.38v-2.94c0-3.33,2-5.17,5-5.17a21.44,21.44,0,0,1,3,.25v3.28h-1.68A1.93,1.93,0,0,0,1331.23,691.88Z" transform="translate(-1323.69 -686.27)"/><path class="cls-2" d="M1333.21,710.67h0a17.23,17.23,0,0,1-1.9.33" transform="translate(-1323.69 -686.27)"/><path class="cls-2" d="M1327,711a15.14,15.14,0,0,1-2.15-.41l-.08,0" transform="translate(-1323.69 -686.27)"/></svg>