<svg id="Layer_1" data-name="Layer 1" xmlns="http://www.w3.org/2000/svg" viewBox="0 0 20.53 20.52"><defs><style>.cls-1{fill:#ff81a6;}</style></defs><title>ic3</title><path class="cls-1" d="M1271.16,687.23H1263a6.17,6.17,0,0,0-6.17,6.16v8.2a6.17,6.17,0,0,0,6.17,6.16h8.19a6.17,6.17,0,0,0,6.17-6.16v-8.2A6.17,6.17,0,0,0,1271.16,687.23Zm4.23,14.36a4.22,4.22,0,0,1-4.23,4.22H1263a4.22,4.22,0,0,1-4.23-4.22v-8.2a4.22,4.22,0,0,1,4.23-4.22h8.19a4.22,4.22,0,0,1,4.23,4.22Z" transform="translate(-1256.8 -687.23)"/><path class="cls-1" d="M1273.7,692.1a1.21,1.21,0,1,1-1.21-1.2A1.21,1.21,0,0,1,1273.7,692.1Z" transform="translate(-1256.8 -687.23)"/><path class="cls-1" d="M1267.14,692.44a5.06,5.06,0,1,0,5.06,5.06A5.07,5.07,0,0,0,1267.14,692.44Zm0,8.29a3.24,3.24,0,1,1,3.25-3.23A3.23,3.23,0,0,1,1267.14,700.73Z" transform="translate(-1256.8 -687.23)"/></svg>