<svg id="Layer_1" data-name="Layer 1" xmlns="http://www.w3.org/2000/svg" viewBox="0 0 19.09 15.71"><defs><style>.cls-1{fill:#ff81a6;}</style></defs><title>ic2</title><path class="cls-1" d="M1214.44,691.55v0a.43.43,0,0,1-.11.29,7.46,7.46,0,0,1-1.52,1.6c-.1.06-.24.13-.24.25a11.75,11.75,0,0,1-3.1,8.59,11.59,11.59,0,0,1-11.22,2.62,10.61,10.61,0,0,1-2.16-.87,5.64,5.64,0,0,1-.67-.4c-.06,0-.1-.09-.05-.11s.08,0,.25,0a7.76,7.76,0,0,0,3.24-.42A5.06,5.06,0,0,0,1201,702l0,0a3.18,3.18,0,0,0-.43-.06,4.22,4.22,0,0,1-3.13-2.62c0-.11,0-.16.11-.15a4.82,4.82,0,0,0,1.49,0,4.32,4.32,0,0,1-.51-.16,4,4,0,0,1-2.47-3.22,1.73,1.73,0,0,1,0-.45c0-.1,0-.14.15-.08a4,4,0,0,0,1.5.42q-.24-.2-.48-.42a4,4,0,0,1-.68-4.71c.09-.11.13-.11.22,0a12.31,12.31,0,0,0,7.86,4c.09,0,.1,0,.09-.1a4.12,4.12,0,0,1,0-1.64,4.4,4.4,0,0,1,.78-1.56,4.16,4.16,0,0,1,1.3-1.06,4.24,4.24,0,0,1,1.62-.46,4,4,0,0,1,1.7.28,4.09,4.09,0,0,1,1.11.68.89.89,0,0,1,.19.2.17.17,0,0,0,.17,0,9.92,9.92,0,0,0,2.29-.87.07.07,0,1,1,.11.09,3.69,3.69,0,0,1-.65,1.16c-.18.23-.63.79-.95.85a7.33,7.33,0,0,0,1.93-.55C1214.44,691.52,1214.44,691.51,1214.44,691.55Z" transform="translate(-1195.34 -689.66)"/></svg>