<svg id="Layer_1" data-name="Layer 1" xmlns="http://www.w3.org/2000/svg" viewBox="0 0 19.15 13.4"><defs><style>.cls-1{fill:#f4ede7;}.cls-2{fill:#ff81a6;}</style></defs><title>ic1</title><path class="cls-1" d="M1143.41,698.12l-4.81,2.39c-.19.09-.84,0-.84-.25v-4.9c0-.21.65-.35.84-.24l4.62,2.5C1143.41,697.74,1143.61,698,1143.41,698.12Z" transform="translate(-1130.58 -691.04)"/><path class="cls-2" d="M1145.53,691h-10.75a4.21,4.21,0,0,0-4.2,4.21v5a4.21,4.21,0,0,0,4.2,4.2h10.75a4.2,4.2,0,0,0,4.2-4.2v-5A4.21,4.21,0,0,0,1145.53,691Zm-2.12,7.08-4.81,2.39c-.19.09-.84,0-.84-.25v-4.9c0-.21.65-.35.84-.24l4.62,2.5C1143.41,697.74,1143.61,698,1143.41,698.12Z" transform="translate(-1130.58 -691.04)"/></svg>